<svg id="wordpress-seeklogo.com" xmlns="http://www.w3.org/2000/svg" width="48" height="48" viewBox="0 0 48 48">
  <path id="Path_1" data-name="Path 1" d="M3.411,24a20.592,20.592,0,0,0,11.6,18.53L5.194,15.62A20.511,20.511,0,0,0,3.411,24ZM37.9,22.96a10.84,10.84,0,0,0-1.7-5.678c-1.044-1.7-2.022-3.132-2.022-4.828A3.565,3.565,0,0,1,37.635,8.8c.091,0,.178.011.267.016A20.583,20.583,0,0,0,6.8,12.692c.483.014.938.025,1.325.025,2.153,0,5.487-.261,5.487-.261a.851.851,0,0,1,.132,1.7s-1.115.131-2.356.2l7.5,22.3,4.506-13.513L20.18,14.346c-1.109-.065-2.159-.2-2.159-.2a.851.851,0,0,1,.13-1.7s3.4.261,5.423.261c2.153,0,5.487-.261,5.487-.261a.851.851,0,0,1,.132,1.7s-1.118.131-2.356.2l7.44,22.132,2.054-6.863c.89-2.848,1.567-4.893,1.567-6.656ZM24.361,25.8l-6.177,17.95a20.6,20.6,0,0,0,12.653-.328,1.808,1.808,0,0,1-.147-.284L24.361,25.8Zm17.7-11.679a15.8,15.8,0,0,1,.139,2.117,19.422,19.422,0,0,1-1.565,7.375L34.349,41.8a20.593,20.593,0,0,0,7.716-27.675ZM24,0A24,24,0,1,0,48,24,24.027,24.027,0,0,0,24,0Zm0,46.9A22.9,22.9,0,1,1,46.9,24,22.926,22.926,0,0,1,24,46.9Z" fill="#21759b"/>
</svg>
