<svg xmlns="http://www.w3.org/2000/svg" width="42.207" height="47.998" viewBox="0 0 42.207 47.998">
  <g id="shopify-seeklogo.com" transform="translate(-0.037 -0.779)">
    <path id="Path_2" data-name="Path 2" d="M37,10.125a.464.464,0,0,0-.419-.389c-.174-.015-3.864-.288-3.864-.288S30.159,6.9,29.878,6.622a1.165,1.165,0,0,0-1.044-.133L27.4,6.932c-.856-2.463-2.366-4.726-5.024-4.726-.073,0-.149,0-.224.007a3.229,3.229,0,0,0-2.5-1.434C13.461.779,10.5,8.518,9.577,12.45L5.244,13.794c-1.343.421-1.385.463-1.561,1.729C3.55,16.48.037,43.648.037,43.648l27.374,5.129,14.832-3.209S37.037,10.366,37,10.125ZM25.887,7.4l-2.316.717c0-.163,0-.324,0-.5a11.362,11.362,0,0,0-.553-3.74c1.369.172,2.281,1.73,2.868,3.523ZM21.321,4.181a11.486,11.486,0,0,1,.628,4.17c0,.094,0,.181,0,.268L17.163,10.1c.921-3.555,2.648-5.272,4.157-5.92ZM19.481,2.44a1.4,1.4,0,0,1,.794.268c-1.984.933-4.11,3.285-5.008,7.98l-3.781,1.171c1.052-3.581,3.55-9.419,8-9.419Z" transform="translate(0 0)" fill="#95bf46"/>
    <path id="Path_3" data-name="Path 3" d="M174.9,38.337c-.174-.015-3.863-.288-3.863-.288s-2.562-2.544-2.843-2.825a.7.7,0,0,0-.4-.182l-2.07,42.336,14.831-3.208s-5.207-35.2-5.24-35.444a.464.464,0,0,0-.419-.389" transform="translate(-138.311 -28.602)" fill="#5e8e3e"/>
    <path id="Path_4" data-name="Path 4" d="M55.086,100.964l-1.829,5.44a8.414,8.414,0,0,0-3.567-.855c-2.88,0-3.024,1.807-3.024,2.263,0,2.485,6.477,3.437,6.477,9.257,0,4.579-2.9,7.527-6.82,7.527a9.488,9.488,0,0,1-7.1-2.925l1.258-4.157s2.47,2.121,4.554,2.121a1.837,1.837,0,0,0,1.916-1.856c0-3.241-5.314-3.386-5.314-8.711,0-4.482,3.217-8.82,9.712-8.82a7.989,7.989,0,0,1,3.739.717" transform="translate(-32.71 -83.033)" fill="#fff"/>
  </g>
</svg>
